<?xml version="1.0" encoding="UTF-8"?> <svg xmlns="http://www.w3.org/2000/svg" width="236" height="53" viewBox="0 0 236 53"><title>Illuminate Logo</title><g fill="none" fill-rule="nonzero"><path fill="#F78D2B" d="M18.108 8.168a.798.798 0 01-.607-1.315l3.095-3.628a.804.804 0 111.23 1.036l-3.11 3.627a.82.82 0 01-.608.28zM14.562 6.533h-.143a.796.796 0 01-.64-.929L14.631.92a.797.797 0 111.568.288l-.854 4.671a.821.821 0 01-.784.654zM10.634 6.894a.796.796 0 01-.75-.534l-1.59-4.52A.798.798 0 019.193.793c.28.052.51.25.605.519l1.588 4.519a.822.822 0 01-.488 1.019.84.84 0 01-.263.045zM7.425 9.154a.771.771 0 01-.517-.193L3.283 5.867a.798.798 0 011.035-1.212l3.624 3.094a.798.798 0 01-.517 1.405zM5.783 12.736a.603.603 0 01-.148 0l-4.691-.908a.797.797 0 01.287-1.557l4.687.896a.797.797 0 01-.135 1.57zM1.642 18.234a.796.796 0 01-.263-1.55l4.515-1.59a.8.8 0 01.53 1.509l-4.515 1.585a.759.759 0 01-.267.046zM20.386 11.397a.796.796 0 01-.275-1.537l4.515-1.598a.796.796 0 011.048.899.797.797 0 01-.518.605l-4.503 1.586a.742.742 0 01-.267.045zM5.48 23.419a.792.792 0 01-.604-1.315l3.09-3.616a.796.796 0 111.211 1.036l-3.09 3.623a.792.792 0 01-.608.272zM11.082 26.208a.66.66 0 01-.152 0 .797.797 0 01-.632-.932l.89-4.692a.798.798 0 111.568.296l-.899 4.68a.796.796 0 01-.775.648zM12.395 11.759h6.157a5.453 5.453 0 00-1.535-2.589 5.545 5.545 0 00-6.454-.886 5.556 5.556 0 001.832 10.397V11.76z"></path><path fill="#909AA7" d="M30.048 52.725H13.754v-7.942h1.58a3.626 3.626 0 003.608-3.418V24.688a3.634 3.634 0 00-3.629-3.628l-1.568.025v-8.086h17.48v1.533H15.28v5h.03a5.166 5.166 0 015.167 5.156v16.783a5.153 5.153 0 01-5.135 4.86h-.053v4.861h14.775l-.016 1.533z"></path><path fill="#FFFFFF" d="M24.482 20.333h3.653v25.596h-3.653zM34.53 20.333h3.64v22.416h13.844v3.18H34.53zM55.121 20.333h3.653v22.416h13.844v3.18H55.121zM74.486 34.886V20.333h3.653v14.409c0 5.665 2.594 8.217 7.199 8.217s7.231-2.56 7.231-8.217V20.333h3.543v14.553c0 7.424-4.056 11.339-10.811 11.339-6.756 0-10.815-3.907-10.815-11.34zM125.006 45.929l-.037-18.648-9.226 15.542h-1.683l-9.255-15.431v18.537h-3.506V20.333h2.997l10.671 17.991 10.519-17.991h2.98l.037 25.596zM134.996 20.333h3.653v25.596h-3.653zM167.047 20.333v25.596h-2.996l-15.355-19.088v19.088h-3.652V20.333h2.992l15.342 19.109V20.333zM190.15 39.532h-13.59l-2.81 6.397h-3.764l11.582-25.596h3.616L196.8 45.93h-3.833l-2.816-6.397zm-1.276-2.925l-5.516-12.543-5.517 12.543h11.033zM202 23.513h-8.767v-3.18h21.149v3.18h-8.754v22.416h-3.616zM235.934 42.749v3.18h-18.555V20.333h18.059v3.18h-14.407v7.864h12.822v3.106h-12.822v8.266z"></path></g></svg> 