<?xml version="1.0" encoding="UTF-8" standalone="no"?>
<!DOCTYPE svg PUBLIC "-//W3C//DTD SVG 1.1//EN" "http://www.w3.org/Graphics/SVG/1.1/DTD/svg11.dtd">
<svg width="100%" height="100%" viewBox="0 0 2175 950" version="1.1" xmlns="http://www.w3.org/2000/svg" xmlns:xlink="http://www.w3.org/1999/xlink" xml:space="preserve" xmlns:serif="http://www.serif.com/" style="fill-rule:evenodd;clip-rule:evenodd;stroke-linejoin:round;stroke-miterlimit:2;">
    <g transform="matrix(1,0,0,1,-600.187,-1212.57)">
        <g transform="matrix(4.16667,0,0,4.16667,0,0)">
            <path d="M186.25,291.017C160.329,291.016 144.045,310.956 144.045,336.543L144.045,473.456C144.045,499.376 160.329,518.982 186.25,518.983C212.17,518.983 226.792,500.041 226.792,474.453L226.792,437.898L205.855,437.898L205.855,476.779C205.855,488.078 199.209,496.054 187.247,496.054C174.619,496.054 167.973,488.078 167.973,477.112L167.973,332.888C167.973,322.254 174.619,313.946 187.247,313.946C199.209,313.946 205.855,322.254 205.855,333.221L205.855,371.769L226.792,371.769L226.792,335.547C226.792,309.958 212.17,291.017 186.25,291.017Z" style="fill:white;fill-rule:nonzero;"/>
            <path d="M271.557,294.34L247.63,294.34L247.63,515.66L316.419,515.66L316.419,492.731L271.557,492.73L271.557,294.34Z" style="fill:white;fill-rule:nonzero;"/>
            <rect x="333.604" y="294.34" width="24.258" height="221.32" style="fill:white;fill-rule:nonzero;"/>
            <path d="M441.84,472.46L426.553,486.084L434.195,493.063C431.205,495.058 427.55,496.054 423.229,496.054C410.935,496.054 404.621,487.414 404.621,477.112L404.621,332.889C404.621,322.919 410.936,313.947 423.23,313.947C435.526,313.947 441.84,322.919 441.84,332.889L441.84,472.46ZM465.766,475.118L465.766,336.544C465.767,310.624 449.151,291.017 423.23,291.017C397.311,291.017 380.694,310.624 380.694,336.544L380.694,473.457C380.694,499.377 397.31,518.983 423.229,518.983C431.87,518.983 439.847,516.989 446.492,512.67C450.147,516.657 455.796,518.983 462.11,518.983C468.425,518.983 471.748,517.987 475.07,515.66L475.07,501.039C468.092,501.039 463.108,499.377 460.449,496.719C463.771,491.402 465.766,483.427 465.766,475.118Z" style="fill:white;fill-rule:nonzero;"/>
            <path d="M548.413,475.784C548.413,489.408 542.432,496.387 530.136,496.387C517.841,496.387 511.858,489.408 511.858,475.783L511.859,294.34L487.932,294.34L487.932,474.453C487.932,501.703 505.545,518.983 529.804,518.983C553.729,518.983 571.675,501.703 571.675,474.454L571.675,294.34L548.413,294.34L548.413,475.784Z" style="fill:white;fill-rule:nonzero;"/>
            <path d="M665.954,316.605L665.955,294.341L595.505,294.34L595.505,515.661L665.954,515.661L665.954,493.396L619.431,493.396L619.431,411.979L652.994,411.979L652.994,390.379L619.431,390.379L619.431,316.605L665.954,316.605Z" style="fill:white;fill-rule:nonzero;"/>
        </g>
    </g>
</svg>
