<svg xmlns="http://www.w3.org/2000/svg" xmlns:xlink="http://www.w3.org/1999/xlink" width="42" height="34" viewBox="0 0 42 34">
	<title>Twitter Icon</title>
	<g fill="none" fill-rule="evenodd">
		<path fill="#27A0E8" d="M0 30.143A24.454 24.454 0 0013.208 34c15.999 0 25.037-13.46 24.493-25.533A17.433 17.433 0 0042 4.024a17.262 17.262 0 01-4.95 1.351A8.597 8.597 0 0040.84.627a17.3 17.3 0 01-5.471 2.084A8.62 8.62 0 0029.078 0c-5.562 0-9.65 5.17-8.393 10.54a24.488 24.488 0 01-17.76-8.97 8.573 8.573 0 002.667 11.461 8.606 8.606 0 01-3.905-1.075c-.092 3.978 2.767 7.697 6.912 8.526a8.654 8.654 0 01-3.89.146 8.613 8.613 0 008.048 5.96A17.361 17.361 0 010 30.144" />
	</g>
</svg>
